<?xml version="1.0" encoding="UTF-8"?>
<svg xmlns="http://www.w3.org/2000/svg" version="1.1" width="300" height="300" viewBox="0 0 300 300"><rect x="0" y="0" width="300" height="300" fill="#ffffff"/><g transform="scale(8.108)"><g transform="translate(0,0)"><path fill-rule="evenodd" d="M8 0L8 4L9 4L9 5L8 5L8 7L9 7L9 6L10 6L10 9L11 9L11 8L12 8L12 9L13 9L13 10L15 10L15 11L14 11L14 12L13 12L13 11L12 11L12 12L11 12L11 11L10 11L10 13L12 13L12 14L11 14L11 15L9 15L9 14L8 14L8 13L9 13L9 9L8 9L8 11L7 11L7 10L6 10L6 9L7 9L7 8L4 8L4 9L5 9L5 10L4 10L4 11L3 11L3 12L2 12L2 11L0 11L0 12L1 12L1 13L0 13L0 15L1 15L1 13L2 13L2 14L3 14L3 17L2 17L2 18L1 18L1 19L0 19L0 21L1 21L1 19L2 19L2 18L4 18L4 19L5 19L5 18L6 18L6 19L7 19L7 20L6 20L6 21L5 21L5 20L3 20L3 21L2 21L2 23L3 23L3 25L0 25L0 26L2 26L2 27L3 27L3 28L0 28L0 29L8 29L8 30L9 30L9 29L10 29L10 30L11 30L11 32L9 32L9 31L8 31L8 33L9 33L9 34L10 34L10 35L11 35L11 34L10 34L10 33L11 33L11 32L12 32L12 33L13 33L13 34L15 34L15 35L14 35L14 36L13 36L13 35L12 35L12 36L11 36L11 37L12 37L12 36L13 36L13 37L15 37L15 36L16 36L16 37L17 37L17 36L19 36L19 37L20 37L20 35L21 35L21 36L22 36L22 37L23 37L23 36L24 36L24 37L25 37L25 30L28 30L28 33L26 33L26 36L27 36L27 37L28 37L28 35L32 35L32 33L33 33L33 35L34 35L34 37L37 37L37 36L36 36L36 35L35 35L35 34L37 34L37 33L35 33L35 30L34 30L34 33L33 33L33 25L32 25L32 26L31 26L31 27L30 27L30 25L31 25L31 24L29 24L29 25L28 25L28 24L27 24L27 23L28 23L28 22L29 22L29 21L28 21L28 20L26 20L26 24L27 24L27 25L25 25L25 27L26 27L26 28L27 28L27 27L28 27L28 29L25 29L25 30L24 30L24 29L23 29L23 28L24 28L24 25L23 25L23 28L22 28L22 27L20 27L20 29L19 29L19 30L20 30L20 29L23 29L23 30L22 30L22 31L19 31L19 33L18 33L18 31L16 31L16 30L18 30L18 29L16 29L16 28L18 28L18 27L19 27L19 25L20 25L20 26L22 26L22 24L25 24L25 22L24 22L24 21L25 21L25 20L24 20L24 21L23 21L23 19L24 19L24 17L25 17L25 15L24 15L24 13L25 13L25 12L24 12L24 11L25 11L25 10L27 10L27 11L26 11L26 12L29 12L29 13L26 13L26 14L27 14L27 15L26 15L26 16L27 16L27 17L26 17L26 18L25 18L25 19L29 19L29 20L30 20L30 21L31 21L31 20L32 20L32 19L30 19L30 17L31 17L31 18L33 18L33 19L34 19L34 21L32 21L32 22L30 22L30 23L33 23L33 22L36 22L36 21L37 21L37 20L36 20L36 19L35 19L35 18L36 18L36 17L37 17L37 16L36 16L36 13L35 13L35 12L37 12L37 11L36 11L36 10L35 10L35 9L37 9L37 8L33 8L33 9L32 9L32 8L31 8L31 9L32 9L32 11L31 11L31 10L30 10L30 12L29 12L29 11L28 11L28 10L29 10L29 9L28 9L28 8L29 8L29 4L28 4L28 3L29 3L29 2L28 2L28 3L25 3L25 2L27 2L27 1L29 1L29 0L27 0L27 1L26 1L26 0L25 0L25 2L24 2L24 3L25 3L25 4L23 4L23 5L22 5L22 7L21 7L21 3L23 3L23 2L22 2L22 1L24 1L24 0L22 0L22 1L20 1L20 0L16 0L16 3L14 3L14 4L13 4L13 1L14 1L14 2L15 2L15 0L13 0L13 1L11 1L11 2L12 2L12 5L14 5L14 4L15 4L15 5L16 5L16 7L15 7L15 6L14 6L14 8L17 8L17 9L13 9L13 8L12 8L12 7L13 7L13 6L12 6L12 7L11 7L11 3L10 3L10 2L9 2L9 0ZM18 1L18 3L21 3L21 2L19 2L19 1ZM16 3L16 5L17 5L17 7L18 7L18 6L19 6L19 8L18 8L18 9L19 9L19 8L20 8L20 10L17 10L17 11L15 11L15 14L16 14L16 13L17 13L17 15L16 15L16 16L15 16L15 15L14 15L14 17L15 17L15 18L13 18L13 17L12 17L12 16L13 16L13 15L12 15L12 16L11 16L11 18L10 18L10 16L9 16L9 15L8 15L8 14L7 14L7 13L8 13L8 12L7 12L7 11L5 11L5 12L4 12L4 13L3 13L3 14L4 14L4 15L5 15L5 14L7 14L7 15L6 15L6 16L7 16L7 17L6 17L6 18L7 18L7 19L8 19L8 21L10 21L10 20L12 20L12 21L11 21L11 22L12 22L12 21L13 21L13 22L15 22L15 21L13 21L13 20L14 20L14 19L15 19L15 20L16 20L16 21L18 21L18 23L19 23L19 24L17 24L17 23L14 23L14 25L16 25L16 26L17 26L17 25L19 25L19 24L20 24L20 25L21 25L21 23L20 23L20 22L22 22L22 23L23 23L23 21L20 21L20 20L21 20L21 19L22 19L22 17L20 17L20 16L21 16L21 14L23 14L23 13L17 13L17 11L19 11L19 12L20 12L20 10L21 10L21 11L22 11L22 12L23 12L23 10L22 10L22 9L21 9L21 7L20 7L20 6L19 6L19 5L20 5L20 4L17 4L17 3ZM25 4L25 5L23 5L23 7L22 7L22 8L23 8L23 9L24 9L24 10L25 10L25 9L27 9L27 7L28 7L28 5L26 5L26 4ZM25 5L25 6L24 6L24 7L25 7L25 6L26 6L26 7L27 7L27 6L26 6L26 5ZM0 8L0 9L2 9L2 10L3 10L3 9L2 9L2 8ZM24 8L24 9L25 9L25 8ZM33 10L33 11L32 11L32 13L30 13L30 14L28 14L28 18L29 18L29 16L31 16L31 14L32 14L32 13L34 13L34 12L33 12L33 11L35 11L35 10ZM5 12L5 13L7 13L7 12ZM12 12L12 13L13 13L13 14L14 14L14 13L13 13L13 12ZM33 14L33 16L32 16L32 17L34 17L34 15L35 15L35 14ZM17 15L17 16L16 16L16 18L15 18L15 19L17 19L17 20L20 20L20 19L21 19L21 18L20 18L20 19L19 19L19 17L18 17L18 15ZM19 15L19 16L20 16L20 15ZM22 15L22 16L23 16L23 15ZM0 16L0 17L1 17L1 16ZM8 16L8 18L9 18L9 20L10 20L10 18L9 18L9 16ZM35 16L35 17L36 17L36 16ZM4 17L4 18L5 18L5 17ZM17 18L17 19L18 19L18 18ZM12 19L12 20L13 20L13 19ZM3 21L3 23L4 23L4 24L5 24L5 23L4 23L4 22L5 22L5 21ZM6 21L6 22L7 22L7 21ZM19 21L19 22L20 22L20 21ZM0 22L0 23L1 23L1 22ZM8 22L8 23L6 23L6 24L7 24L7 25L6 25L6 26L7 26L7 27L6 27L6 28L7 28L7 27L9 27L9 28L8 28L8 29L9 29L9 28L10 28L10 29L11 29L11 30L12 30L12 29L13 29L13 30L16 30L16 29L13 29L13 28L14 28L14 27L15 27L15 26L13 26L13 25L12 25L12 24L13 24L13 23L12 23L12 24L10 24L10 25L9 25L9 26L7 26L7 25L8 25L8 24L9 24L9 23L10 23L10 22ZM34 23L34 25L35 25L35 26L36 26L36 25L37 25L37 24L36 24L36 23ZM16 24L16 25L17 25L17 24ZM3 25L3 27L4 27L4 26L5 26L5 25ZM10 26L10 27L11 27L11 26ZM28 26L28 27L29 27L29 28L30 28L30 27L29 27L29 26ZM12 27L12 28L11 28L11 29L12 29L12 28L13 28L13 27ZM34 27L34 29L35 29L35 28L36 28L36 27ZM29 29L29 32L32 32L32 29ZM30 30L30 31L31 31L31 30ZM12 31L12 32L13 32L13 31ZM14 31L14 33L16 33L16 34L17 34L17 35L20 35L20 34L22 34L22 35L23 35L23 33L19 33L19 34L17 34L17 33L16 33L16 32L15 32L15 31ZM22 31L22 32L24 32L24 31ZM26 31L26 32L27 32L27 31ZM28 33L28 34L29 34L29 33ZM8 35L8 37L10 37L10 36L9 36L9 35ZM29 36L29 37L32 37L32 36ZM0 0L0 7L7 7L7 0ZM1 1L1 6L6 6L6 1ZM2 2L2 5L5 5L5 2ZM30 0L30 7L37 7L37 0ZM31 1L31 6L36 6L36 1ZM32 2L32 5L35 5L35 2ZM0 30L0 37L7 37L7 30ZM1 31L1 36L6 36L6 31ZM2 32L2 35L5 35L5 32Z" fill="#000000"/></g></g></svg>
