<?xml version="1.0" encoding="UTF-8"?>
<svg xmlns="http://www.w3.org/2000/svg" version="1.1" width="300" height="300" viewBox="0 0 300 300"><rect x="0" y="0" width="300" height="300" fill="#ffffff"/><g transform="scale(8.108)"><g transform="translate(0,0)"><path fill-rule="evenodd" d="M9 0L9 1L8 1L8 2L9 2L9 3L8 3L8 4L10 4L10 7L11 7L11 4L12 4L12 5L13 5L13 6L12 6L12 9L13 9L13 10L11 10L11 11L10 11L10 12L9 12L9 13L8 13L8 11L9 11L9 10L10 10L10 9L11 9L11 8L6 8L6 9L7 9L7 10L6 10L6 11L5 11L5 12L3 12L3 14L2 14L2 12L1 12L1 11L4 11L4 9L5 9L5 8L0 8L0 10L1 10L1 11L0 11L0 12L1 12L1 14L2 14L2 15L0 15L0 16L2 16L2 18L5 18L5 20L4 20L4 21L3 21L3 20L2 20L2 19L1 19L1 17L0 17L0 21L1 21L1 20L2 20L2 21L3 21L3 24L4 24L4 26L5 26L5 24L6 24L6 25L7 25L7 24L8 24L8 25L9 25L9 24L10 24L10 25L11 25L11 23L9 23L9 22L10 22L10 20L8 20L8 18L6 18L6 17L7 17L7 16L6 16L6 17L4 17L4 15L5 15L5 13L7 13L7 14L6 14L6 15L7 15L7 14L9 14L9 15L10 15L10 16L11 16L11 13L12 13L12 14L13 14L13 15L12 15L12 17L13 17L13 16L14 16L14 17L16 17L16 18L15 18L15 19L14 19L14 20L15 20L15 21L12 21L12 19L13 19L13 18L10 18L10 17L9 17L9 18L10 18L10 19L11 19L11 21L12 21L12 22L13 22L13 23L12 23L12 25L13 25L13 24L14 24L14 25L15 25L15 24L16 24L16 25L19 25L19 26L20 26L20 27L21 27L21 28L19 28L19 29L18 29L18 28L17 28L17 29L12 29L12 27L13 27L13 26L11 26L11 27L10 27L10 26L9 26L9 29L8 29L8 28L6 28L6 27L8 27L8 26L6 26L6 27L3 27L3 28L2 28L2 29L3 29L3 28L4 28L4 29L8 29L8 31L9 31L9 32L8 32L8 37L12 37L12 35L13 35L13 34L11 34L11 36L9 36L9 35L10 35L10 33L9 33L9 32L11 32L11 30L9 30L9 29L12 29L12 30L13 30L13 31L12 31L12 33L13 33L13 32L14 32L14 33L15 33L15 32L14 32L14 31L16 31L16 30L17 30L17 31L18 31L18 32L20 32L20 35L21 35L21 36L22 36L22 37L23 37L23 36L22 36L22 35L21 35L21 34L26 34L26 36L24 36L24 37L27 37L27 36L29 36L29 37L31 37L31 35L32 35L32 34L33 34L33 35L34 35L34 34L35 34L35 35L36 35L36 36L32 36L32 37L37 37L37 33L35 33L35 32L37 32L37 30L35 30L35 32L33 32L33 30L34 30L34 29L35 29L35 28L33 28L33 26L34 26L34 27L36 27L36 28L37 28L37 26L36 26L36 25L37 25L37 22L36 22L36 21L37 21L37 18L36 18L36 17L37 17L37 14L36 14L36 13L35 13L35 12L34 12L34 11L35 11L35 9L36 9L36 8L35 8L35 9L34 9L34 8L33 8L33 9L34 9L34 11L33 11L33 10L32 10L32 8L31 8L31 10L32 10L32 11L31 11L31 12L30 12L30 10L29 10L29 9L30 9L30 8L29 8L29 9L28 9L28 10L27 10L27 11L26 11L26 12L25 12L25 11L24 11L24 12L23 12L23 10L24 10L24 9L27 9L27 8L28 8L28 7L29 7L29 3L24 3L24 2L23 2L23 3L22 3L22 2L21 2L21 1L24 1L24 0L16 0L16 1L14 1L14 0L13 0L13 1L11 1L11 2L10 2L10 0ZM26 0L26 1L27 1L27 2L28 2L28 1L29 1L29 0L28 0L28 1L27 1L27 0ZM16 1L16 2L15 2L15 3L16 3L16 2L17 2L17 3L18 3L18 4L15 4L15 5L14 5L14 2L12 2L12 4L13 4L13 5L14 5L14 6L13 6L13 8L15 8L15 9L17 9L17 10L16 10L16 11L15 11L15 10L14 10L14 11L12 11L12 13L14 13L14 14L16 14L16 13L17 13L17 14L19 14L19 15L20 15L20 16L18 16L18 15L17 15L17 16L16 16L16 15L14 15L14 16L16 16L16 17L17 17L17 18L16 18L16 20L19 20L19 21L18 21L18 22L16 22L16 21L15 21L15 22L16 22L16 24L19 24L19 25L21 25L21 27L22 27L22 26L23 26L23 29L22 29L22 30L23 30L23 31L22 31L22 32L23 32L23 31L24 31L24 32L26 32L26 31L27 31L27 32L28 32L28 29L25 29L25 28L26 28L26 27L25 27L25 28L24 28L24 26L28 26L28 25L29 25L29 24L28 24L28 23L27 23L27 25L25 25L25 24L26 24L26 22L28 22L28 21L29 21L29 22L30 22L30 23L31 23L31 24L36 24L36 23L34 23L34 21L32 21L32 22L33 22L33 23L31 23L31 21L30 21L30 20L31 20L31 19L32 19L32 20L36 20L36 19L35 19L35 18L34 18L34 17L32 17L32 16L31 16L31 17L30 17L30 18L29 18L29 16L27 16L27 17L26 17L26 18L28 18L28 19L25 19L25 20L26 20L26 22L25 22L25 21L24 21L24 20L23 20L23 19L24 19L24 18L25 18L25 17L24 17L24 18L21 18L21 19L20 19L20 18L19 18L19 17L22 17L22 16L21 16L21 15L20 15L20 14L19 14L19 13L17 13L17 12L18 12L18 11L19 11L19 12L20 12L20 13L22 13L22 15L23 15L23 16L26 16L26 15L27 15L27 14L28 14L28 13L29 13L29 11L28 11L28 13L26 13L26 14L25 14L25 13L24 13L24 14L23 14L23 13L22 13L22 12L21 12L21 11L22 11L22 10L20 10L20 6L21 6L21 7L22 7L22 6L21 6L21 5L20 5L20 4L22 4L22 5L23 5L23 7L24 7L24 6L25 6L25 8L27 8L27 7L28 7L28 6L27 6L27 7L26 7L26 5L28 5L28 4L26 4L26 5L23 5L23 4L22 4L22 3L21 3L21 2L20 2L20 1L19 1L19 2L18 2L18 1ZM19 2L19 3L20 3L20 2ZM10 3L10 4L11 4L11 3ZM18 4L18 5L19 5L19 4ZM8 5L8 7L9 7L9 5ZM15 5L15 6L14 6L14 7L15 7L15 8L16 8L16 7L17 7L17 6L16 6L16 5ZM15 6L15 7L16 7L16 6ZM18 6L18 7L19 7L19 6ZM17 8L17 9L18 9L18 10L17 10L17 11L18 11L18 10L19 10L19 9L18 9L18 8ZM21 8L21 9L22 9L22 8ZM23 8L23 9L24 9L24 8ZM8 9L8 10L7 10L7 11L6 11L6 12L7 12L7 11L8 11L8 10L9 10L9 9ZM36 10L36 11L37 11L37 10ZM32 11L32 12L31 12L31 13L30 13L30 14L31 14L31 13L32 13L32 14L33 14L33 16L35 16L35 17L36 17L36 14L35 14L35 15L34 15L34 13L32 13L32 12L33 12L33 11ZM15 12L15 13L16 13L16 12ZM9 13L9 14L10 14L10 13ZM3 14L3 15L2 15L2 16L3 16L3 15L4 15L4 14ZM24 14L24 15L25 15L25 14ZM17 16L17 17L18 17L18 16ZM18 18L18 19L19 19L19 20L20 20L20 21L19 21L19 22L18 22L18 23L19 23L19 22L20 22L20 23L21 23L21 24L22 24L22 23L23 23L23 22L24 22L24 21L23 21L23 20L22 20L22 19L21 19L21 20L20 20L20 19L19 19L19 18ZM30 18L30 19L31 19L31 18ZM33 18L33 19L34 19L34 18ZM6 19L6 20L7 20L7 21L6 21L6 22L4 22L4 24L5 24L5 23L6 23L6 24L7 24L7 23L8 23L8 20L7 20L7 19ZM28 19L28 20L29 20L29 19ZM21 20L21 21L22 21L22 22L23 22L23 21L22 21L22 20ZM0 22L0 24L1 24L1 25L0 25L0 29L1 29L1 26L2 26L2 22ZM6 22L6 23L7 23L7 22ZM14 23L14 24L15 24L15 23ZM23 25L23 26L24 26L24 25ZM30 25L30 26L29 26L29 27L27 27L27 28L29 28L29 27L30 27L30 28L31 28L31 27L30 27L30 26L31 26L31 25ZM32 25L32 26L33 26L33 25ZM34 25L34 26L35 26L35 25ZM15 26L15 27L14 27L14 28L16 28L16 27L18 27L18 26ZM19 29L19 30L18 30L18 31L20 31L20 32L21 32L21 30L20 30L20 29ZM23 29L23 30L24 30L24 29ZM29 29L29 32L32 32L32 29ZM30 30L30 31L31 31L31 30ZM16 32L16 34L15 34L15 35L14 35L14 36L17 36L17 35L16 35L16 34L19 34L19 33L17 33L17 32ZM26 33L26 34L28 34L28 35L31 35L31 34L32 34L32 33L31 33L31 34L29 34L29 33ZM33 33L33 34L34 34L34 33ZM19 36L19 37L20 37L20 36ZM0 0L0 7L7 7L7 0ZM1 1L1 6L6 6L6 1ZM2 2L2 5L5 5L5 2ZM30 0L30 7L37 7L37 0ZM31 1L31 6L36 6L36 1ZM32 2L32 5L35 5L35 2ZM0 30L0 37L7 37L7 30ZM1 31L1 36L6 36L6 31ZM2 32L2 35L5 35L5 32Z" fill="#000000"/></g></g></svg>
