<?xml version="1.0" encoding="UTF-8"?>
<svg xmlns="http://www.w3.org/2000/svg" version="1.1" width="300" height="300" viewBox="0 0 300 300"><rect x="0" y="0" width="300" height="300" fill="#ffffff"/><g transform="scale(8.108)"><g transform="translate(0,0)"><path fill-rule="evenodd" d="M8 0L8 4L9 4L9 5L8 5L8 7L9 7L9 6L10 6L10 9L11 9L11 8L12 8L12 9L13 9L13 11L12 11L12 12L11 12L11 10L9 10L9 9L7 9L7 8L4 8L4 9L2 9L2 8L0 8L0 9L1 9L1 10L3 10L3 11L4 11L4 12L2 12L2 11L0 11L0 12L1 12L1 13L3 13L3 15L4 15L4 13L5 13L5 14L6 14L6 15L7 15L7 14L8 14L8 15L10 15L10 13L12 13L12 14L11 14L11 16L12 16L12 17L13 17L13 18L15 18L15 19L14 19L14 20L13 20L13 19L12 19L12 20L11 20L11 19L10 19L10 18L11 18L11 17L10 17L10 18L9 18L9 19L8 19L8 21L7 21L7 20L5 20L5 19L7 19L7 18L6 18L6 17L9 17L9 16L6 16L6 17L3 17L3 16L2 16L2 17L3 17L3 18L2 18L2 19L1 19L1 20L0 20L0 21L1 21L1 22L2 22L2 21L3 21L3 20L2 20L2 19L4 19L4 22L3 22L3 23L0 23L0 24L3 24L3 25L4 25L4 26L5 26L5 25L4 25L4 24L5 24L5 23L7 23L7 24L6 24L6 25L9 25L9 23L10 23L10 26L8 26L8 27L7 27L7 26L6 26L6 27L3 27L3 26L2 26L2 28L0 28L0 29L2 29L2 28L4 28L4 29L8 29L8 30L9 30L9 31L8 31L8 33L10 33L10 32L12 32L12 33L13 33L13 34L15 34L15 35L14 35L14 36L13 36L13 35L12 35L12 36L11 36L11 34L10 34L10 36L11 36L11 37L12 37L12 36L13 36L13 37L15 37L15 35L16 35L16 34L17 34L17 36L16 36L16 37L23 37L23 36L24 36L24 37L25 37L25 30L28 30L28 33L26 33L26 36L27 36L27 37L28 37L28 35L32 35L32 33L33 33L33 35L34 35L34 37L37 37L37 36L36 36L36 35L35 35L35 34L37 34L37 33L35 33L35 30L34 30L34 33L33 33L33 25L32 25L32 26L31 26L31 27L30 27L30 25L31 25L31 24L29 24L29 25L28 25L28 24L27 24L27 23L28 23L28 22L29 22L29 21L28 21L28 20L26 20L26 24L27 24L27 25L25 25L25 27L26 27L26 28L27 28L27 27L28 27L28 29L25 29L25 30L24 30L24 29L23 29L23 28L24 28L24 25L23 25L23 28L22 28L22 27L20 27L20 28L19 28L19 27L18 27L18 26L19 26L19 25L21 25L21 26L22 26L22 24L25 24L25 22L24 22L24 21L25 21L25 20L24 20L24 21L23 21L23 19L24 19L24 17L25 17L25 15L24 15L24 13L25 13L25 12L24 12L24 11L25 11L25 10L27 10L27 11L26 11L26 12L29 12L29 13L26 13L26 14L27 14L27 15L26 15L26 16L27 16L27 17L26 17L26 18L25 18L25 19L29 19L29 20L30 20L30 21L31 21L31 20L32 20L32 19L30 19L30 17L31 17L31 18L33 18L33 19L34 19L34 21L32 21L32 22L30 22L30 23L33 23L33 22L36 22L36 21L37 21L37 20L36 20L36 19L35 19L35 18L36 18L36 17L37 17L37 16L36 16L36 13L35 13L35 12L37 12L37 11L36 11L36 10L35 10L35 9L37 9L37 8L33 8L33 9L32 9L32 8L31 8L31 9L32 9L32 11L31 11L31 10L30 10L30 12L29 12L29 11L28 11L28 10L29 10L29 9L28 9L28 8L29 8L29 4L28 4L28 3L29 3L29 2L28 2L28 3L25 3L25 2L27 2L27 1L29 1L29 0L27 0L27 1L26 1L26 0L25 0L25 2L24 2L24 3L25 3L25 4L23 4L23 5L22 5L22 7L21 7L21 6L20 6L20 5L21 5L21 3L23 3L23 2L22 2L22 1L24 1L24 0L22 0L22 1L21 1L21 3L20 3L20 5L19 5L19 6L18 6L18 7L17 7L17 6L16 6L16 7L17 7L17 8L19 8L19 9L20 9L20 8L19 8L19 6L20 6L20 7L21 7L21 9L22 9L22 10L23 10L23 12L22 12L22 11L21 11L21 13L20 13L20 15L21 15L21 17L22 17L22 19L19 19L19 18L18 18L18 19L17 19L17 21L16 21L16 20L15 20L15 19L16 19L16 18L17 18L17 17L16 17L16 16L18 16L18 15L16 15L16 14L17 14L17 13L18 13L18 12L19 12L19 10L17 10L17 9L14 9L14 8L12 8L12 7L13 7L13 6L12 6L12 7L11 7L11 3L10 3L10 2L9 2L9 0ZM13 0L13 1L11 1L11 2L12 2L12 5L14 5L14 3L13 3L13 2L15 2L15 1L14 1L14 0ZM16 0L16 1L17 1L17 2L16 2L16 3L15 3L15 5L17 5L17 3L18 3L18 4L19 4L19 2L20 2L20 1L19 1L19 0ZM25 4L25 5L23 5L23 7L22 7L22 8L23 8L23 9L24 9L24 10L25 10L25 9L27 9L27 7L28 7L28 5L26 5L26 4ZM25 5L25 6L24 6L24 7L25 7L25 6L26 6L26 7L27 7L27 6L26 6L26 5ZM14 6L14 7L15 7L15 6ZM24 8L24 9L25 9L25 8ZM4 9L4 10L5 10L5 9ZM6 9L6 10L7 10L7 9ZM8 10L8 11L9 11L9 12L7 12L7 11L5 11L5 12L7 12L7 13L6 13L6 14L7 14L7 13L10 13L10 11L9 11L9 10ZM14 10L14 11L13 11L13 12L12 12L12 13L13 13L13 14L14 14L14 13L13 13L13 12L15 12L15 13L17 13L17 12L16 12L16 11L15 11L15 10ZM33 10L33 11L32 11L32 13L30 13L30 14L28 14L28 18L29 18L29 16L31 16L31 14L32 14L32 13L34 13L34 12L33 12L33 11L35 11L35 10ZM21 13L21 14L23 14L23 13ZM0 14L0 15L2 15L2 14ZM33 14L33 16L32 16L32 17L34 17L34 15L35 15L35 14ZM12 15L12 16L13 16L13 15ZM14 15L14 17L15 17L15 18L16 18L16 17L15 17L15 15ZM22 15L22 16L23 16L23 15ZM0 16L0 18L1 18L1 16ZM19 16L19 17L20 17L20 16ZM35 16L35 17L36 17L36 16ZM9 19L9 22L10 22L10 23L11 23L11 22L12 22L12 21L13 21L13 22L16 22L16 21L13 21L13 20L12 20L12 21L11 21L11 20L10 20L10 19ZM18 19L18 21L17 21L17 23L16 23L16 24L15 24L15 23L14 23L14 25L17 25L17 26L16 26L16 27L15 27L15 26L13 26L13 25L12 25L12 24L13 24L13 23L12 23L12 24L11 24L11 27L10 27L10 29L9 29L9 27L8 27L8 29L9 29L9 30L12 30L12 29L13 29L13 30L16 30L16 31L17 31L17 30L16 30L16 27L17 27L17 26L18 26L18 25L19 25L19 24L18 24L18 25L17 25L17 23L20 23L20 24L21 24L21 22L22 22L22 23L23 23L23 21L20 21L20 20L19 20L19 19ZM1 20L1 21L2 21L2 20ZM6 21L6 22L7 22L7 21ZM10 21L10 22L11 22L11 21ZM19 21L19 22L20 22L20 21ZM4 22L4 23L5 23L5 22ZM34 23L34 25L35 25L35 26L36 26L36 25L37 25L37 24L36 24L36 23ZM0 25L0 26L1 26L1 25ZM28 26L28 27L29 27L29 28L30 28L30 27L29 27L29 26ZM6 27L6 28L7 28L7 27ZM12 27L12 28L11 28L11 29L12 29L12 28L13 28L13 29L15 29L15 27L14 27L14 28L13 28L13 27ZM34 27L34 29L35 29L35 28L36 28L36 27ZM17 28L17 29L18 29L18 31L19 31L19 32L18 32L18 36L20 36L20 34L22 34L22 36L23 36L23 33L21 33L21 31L22 31L22 30L23 30L23 29L22 29L22 28L20 28L20 30L19 30L19 28ZM21 29L21 30L20 30L20 31L21 31L21 30L22 30L22 29ZM29 29L29 32L32 32L32 29ZM30 30L30 31L31 31L31 30ZM9 31L9 32L10 32L10 31ZM12 31L12 32L13 32L13 31ZM14 31L14 33L15 33L15 34L16 34L16 33L15 33L15 31ZM23 31L23 32L24 32L24 31ZM26 31L26 32L27 32L27 31ZM19 32L19 33L20 33L20 32ZM28 33L28 34L29 34L29 33ZM8 35L8 37L9 37L9 35ZM29 36L29 37L32 37L32 36ZM0 0L0 7L7 7L7 0ZM1 1L1 6L6 6L6 1ZM2 2L2 5L5 5L5 2ZM30 0L30 7L37 7L37 0ZM31 1L31 6L36 6L36 1ZM32 2L32 5L35 5L35 2ZM0 30L0 37L7 37L7 30ZM1 31L1 36L6 36L6 31ZM2 32L2 35L5 35L5 32Z" fill="#000000"/></g></g></svg>
