<?xml version="1.0" encoding="UTF-8"?>
<svg xmlns="http://www.w3.org/2000/svg" version="1.1" width="300" height="300" viewBox="0 0 300 300"><rect x="0" y="0" width="300" height="300" fill="#ffffff"/><g transform="scale(8.108)"><g transform="translate(0,0)"><path fill-rule="evenodd" d="M9 0L9 1L8 1L8 2L9 2L9 3L8 3L8 4L10 4L10 7L11 7L11 4L12 4L12 5L13 5L13 4L14 4L14 5L15 5L15 6L14 6L14 7L15 7L15 8L13 8L13 6L12 6L12 9L13 9L13 10L10 10L10 9L11 9L11 8L6 8L6 9L5 9L5 8L0 8L0 9L2 9L2 11L3 11L3 12L1 12L1 13L0 13L0 14L1 14L1 16L2 16L2 17L0 17L0 19L1 19L1 18L2 18L2 21L1 21L1 22L0 22L0 24L1 24L1 22L2 22L2 21L4 21L4 20L3 20L3 18L4 18L4 17L5 17L5 16L6 16L6 17L7 17L7 16L8 16L8 15L10 15L10 14L11 14L11 13L12 13L12 14L13 14L13 15L12 15L12 17L13 17L13 16L14 16L14 17L15 17L15 16L16 16L16 18L15 18L15 19L14 19L14 20L15 20L15 19L16 19L16 20L17 20L17 21L16 21L16 22L15 22L15 21L12 21L12 19L13 19L13 18L11 18L11 19L10 19L10 18L9 18L9 17L11 17L11 16L9 16L9 17L8 17L8 18L9 18L9 19L8 19L8 20L6 20L6 19L7 19L7 18L5 18L5 20L6 20L6 21L7 21L7 22L4 22L4 23L2 23L2 25L3 25L3 24L4 24L4 23L7 23L7 24L5 24L5 26L2 26L2 27L3 27L3 28L2 28L2 29L3 29L3 28L4 28L4 27L5 27L5 26L6 26L6 27L8 27L8 28L9 28L9 27L11 27L11 28L10 28L10 29L8 29L8 31L9 31L9 32L8 32L8 37L9 37L9 36L10 36L10 35L11 35L11 37L12 37L12 35L13 35L13 34L10 34L10 33L9 33L9 32L10 32L10 31L11 31L11 29L12 29L12 30L13 30L13 31L12 31L12 33L13 33L13 32L14 32L14 33L15 33L15 35L14 35L14 36L16 36L16 37L20 37L20 36L19 36L19 34L18 34L18 36L16 36L16 34L17 34L17 33L18 33L18 32L17 32L17 31L16 31L16 30L17 30L17 29L16 29L16 28L15 28L15 27L16 27L16 26L17 26L17 25L18 25L18 24L17 24L17 25L15 25L15 24L14 24L14 23L16 23L16 22L17 22L17 21L19 21L19 22L20 22L20 23L21 23L21 24L19 24L19 26L20 26L20 25L21 25L21 24L22 24L22 23L23 23L23 22L24 22L24 21L25 21L25 22L26 22L26 24L25 24L25 25L27 25L27 23L28 23L28 24L29 24L29 25L28 25L28 26L24 26L24 25L23 25L23 26L22 26L22 27L18 27L18 28L19 28L19 29L18 29L18 30L19 30L19 29L20 29L20 30L21 30L21 29L20 29L20 28L22 28L22 29L23 29L23 30L24 30L24 29L23 29L23 26L24 26L24 28L25 28L25 29L28 29L28 32L27 32L27 31L26 31L26 32L24 32L24 31L23 31L23 32L22 32L22 31L21 31L21 33L20 33L20 32L19 32L19 33L20 33L20 34L21 34L21 33L23 33L23 34L22 34L22 35L21 35L21 37L23 37L23 36L22 36L22 35L23 35L23 34L26 34L26 36L24 36L24 37L27 37L27 36L29 36L29 37L31 37L31 35L32 35L32 34L33 34L33 35L34 35L34 34L35 34L35 35L36 35L36 36L32 36L32 37L37 37L37 33L35 33L35 32L37 32L37 30L35 30L35 32L33 32L33 30L34 30L34 29L35 29L35 28L33 28L33 26L34 26L34 27L36 27L36 28L37 28L37 26L36 26L36 25L37 25L37 22L36 22L36 21L37 21L37 18L36 18L36 17L37 17L37 14L36 14L36 13L35 13L35 12L34 12L34 11L35 11L35 9L36 9L36 8L35 8L35 9L34 9L34 8L33 8L33 9L34 9L34 11L33 11L33 10L32 10L32 8L31 8L31 10L32 10L32 11L31 11L31 12L30 12L30 10L29 10L29 9L30 9L30 8L29 8L29 9L28 9L28 10L27 10L27 11L26 11L26 12L25 12L25 11L24 11L24 12L23 12L23 10L24 10L24 9L27 9L27 8L28 8L28 7L29 7L29 3L24 3L24 2L23 2L23 3L22 3L22 2L21 2L21 1L24 1L24 0L18 0L18 1L20 1L20 2L21 2L21 3L22 3L22 4L20 4L20 3L19 3L19 5L21 5L21 6L20 6L20 7L19 7L19 6L18 6L18 5L17 5L17 3L16 3L16 1L17 1L17 0L16 0L16 1L15 1L15 2L14 2L14 0L13 0L13 1L11 1L11 2L10 2L10 0ZM26 0L26 1L27 1L27 2L28 2L28 1L29 1L29 0L28 0L28 1L27 1L27 0ZM12 2L12 4L13 4L13 3L14 3L14 2ZM10 3L10 4L11 4L11 3ZM22 4L22 5L23 5L23 7L24 7L24 6L25 6L25 8L27 8L27 7L28 7L28 6L27 6L27 7L26 7L26 5L28 5L28 4L26 4L26 5L23 5L23 4ZM8 5L8 7L9 7L9 5ZM16 5L16 6L15 6L15 7L16 7L16 6L17 6L17 8L16 8L16 9L15 9L15 10L13 10L13 11L12 11L12 13L14 13L14 14L15 14L15 12L14 12L14 11L15 11L15 10L16 10L16 11L17 11L17 12L16 12L16 13L17 13L17 14L16 14L16 16L17 16L17 18L18 18L18 19L17 19L17 20L19 20L19 21L20 21L20 20L19 20L19 19L22 19L22 20L21 20L21 21L22 21L22 22L23 22L23 21L24 21L24 20L23 20L23 19L24 19L24 18L25 18L25 17L24 17L24 18L20 18L20 17L22 17L22 16L20 16L20 17L19 17L19 15L20 15L20 14L19 14L19 13L20 13L20 12L19 12L19 11L22 11L22 10L20 10L20 9L22 9L22 8L20 8L20 9L17 9L17 8L18 8L18 6L17 6L17 5ZM21 6L21 7L22 7L22 6ZM23 8L23 9L24 9L24 8ZM3 9L3 10L4 10L4 11L5 11L5 12L4 12L4 13L2 13L2 14L4 14L4 15L3 15L3 17L4 17L4 15L5 15L5 14L4 14L4 13L5 13L5 12L7 12L7 13L6 13L6 14L7 14L7 13L8 13L8 11L9 11L9 12L11 12L11 11L9 11L9 9L8 9L8 10L7 10L7 9L6 9L6 10L7 10L7 11L5 11L5 10L4 10L4 9ZM16 9L16 10L17 10L17 11L19 11L19 10L17 10L17 9ZM36 10L36 11L37 11L37 10ZM28 11L28 13L26 13L26 14L25 14L25 13L24 13L24 14L23 14L23 13L22 13L22 12L21 12L21 13L22 13L22 15L23 15L23 16L26 16L26 15L27 15L27 14L28 14L28 13L29 13L29 11ZM32 11L32 12L31 12L31 13L30 13L30 14L31 14L31 13L32 13L32 14L33 14L33 16L35 16L35 17L36 17L36 14L35 14L35 15L34 15L34 13L32 13L32 12L33 12L33 11ZM17 14L17 15L19 15L19 14ZM24 14L24 15L25 15L25 14ZM6 15L6 16L7 16L7 15ZM14 15L14 16L15 16L15 15ZM27 16L27 17L26 17L26 18L28 18L28 19L25 19L25 20L26 20L26 22L28 22L28 21L29 21L29 22L30 22L30 23L31 23L31 24L36 24L36 23L34 23L34 21L32 21L32 22L33 22L33 23L31 23L31 21L30 21L30 20L31 20L31 19L32 19L32 20L36 20L36 19L35 19L35 18L34 18L34 17L32 17L32 16L31 16L31 17L30 17L30 18L29 18L29 16ZM18 17L18 18L19 18L19 17ZM30 18L30 19L31 19L31 18ZM33 18L33 19L34 19L34 18ZM28 19L28 20L29 20L29 19ZM8 20L8 21L9 21L9 20ZM10 20L10 21L11 21L11 22L10 22L10 23L8 23L8 22L7 22L7 23L8 23L8 24L7 24L7 25L6 25L6 26L7 26L7 25L8 25L8 27L9 27L9 25L10 25L10 24L11 24L11 26L13 26L13 27L12 27L12 29L15 29L15 30L16 30L16 29L15 29L15 28L14 28L14 27L15 27L15 25L14 25L14 24L13 24L13 25L12 25L12 23L13 23L13 22L12 22L12 21L11 21L11 20ZM22 20L22 21L23 21L23 20ZM8 24L8 25L9 25L9 24ZM0 25L0 29L1 29L1 25ZM30 25L30 26L29 26L29 27L27 27L27 28L29 28L29 27L30 27L30 28L31 28L31 27L30 27L30 26L31 26L31 25ZM32 25L32 26L33 26L33 25ZM34 25L34 26L35 26L35 25ZM25 27L25 28L26 28L26 27ZM5 28L5 29L7 29L7 28ZM29 29L29 32L32 32L32 29ZM9 30L9 31L10 31L10 30ZM30 30L30 31L31 31L31 30ZM14 31L14 32L16 32L16 31ZM26 33L26 34L28 34L28 35L31 35L31 34L32 34L32 33L31 33L31 34L29 34L29 33ZM33 33L33 34L34 34L34 33ZM9 34L9 35L10 35L10 34ZM0 0L0 7L7 7L7 0ZM1 1L1 6L6 6L6 1ZM2 2L2 5L5 5L5 2ZM30 0L30 7L37 7L37 0ZM31 1L31 6L36 6L36 1ZM32 2L32 5L35 5L35 2ZM0 30L0 37L7 37L7 30ZM1 31L1 36L6 36L6 31ZM2 32L2 35L5 35L5 32Z" fill="#000000"/></g></g></svg>
