<?xml version="1.0" encoding="UTF-8"?>
<svg xmlns="http://www.w3.org/2000/svg" version="1.1" width="300" height="300" viewBox="0 0 300 300"><rect x="0" y="0" width="300" height="300" fill="#ffffff"/><g transform="scale(8.108)"><g transform="translate(0,0)"><path fill-rule="evenodd" d="M8 0L8 1L10 1L10 0ZM13 0L13 2L11 2L11 4L10 4L10 3L9 3L9 2L8 2L8 5L9 5L9 6L8 6L8 7L9 7L9 8L8 8L8 9L9 9L9 8L10 8L10 7L11 7L11 8L12 8L12 7L13 7L13 5L12 5L12 3L14 3L14 4L15 4L15 5L17 5L17 6L16 6L16 7L15 7L15 6L14 6L14 8L16 8L16 11L15 11L15 9L14 9L14 11L11 11L11 10L9 10L9 11L10 11L10 13L9 13L9 12L8 12L8 10L6 10L6 9L7 9L7 8L6 8L6 9L4 9L4 8L0 8L0 10L1 10L1 11L0 11L0 12L1 12L1 11L3 11L3 9L4 9L4 12L2 12L2 14L3 14L3 13L5 13L5 14L6 14L6 15L7 15L7 16L5 16L5 18L4 18L4 16L3 16L3 15L0 15L0 20L1 20L1 21L0 21L0 22L1 22L1 24L0 24L0 25L1 25L1 24L2 24L2 26L1 26L1 27L0 27L0 28L1 28L1 27L2 27L2 29L4 29L4 28L5 28L5 29L7 29L7 28L6 28L6 27L8 27L8 26L6 26L6 27L4 27L4 25L5 25L5 24L6 24L6 25L7 25L7 24L8 24L8 25L9 25L9 24L10 24L10 26L11 26L11 28L12 28L12 29L13 29L13 28L12 28L12 26L13 26L13 27L14 27L14 30L13 30L13 33L15 33L15 31L16 31L16 30L15 30L15 28L17 28L17 27L14 27L14 26L15 26L15 24L16 24L16 23L19 23L19 22L16 22L16 23L15 23L15 24L14 24L14 26L13 26L13 24L12 24L12 25L11 25L11 24L10 24L10 23L14 23L14 22L15 22L15 21L14 21L14 20L13 20L13 18L14 18L14 17L12 17L12 16L14 16L14 15L15 15L15 19L17 19L17 21L19 21L19 20L20 20L20 19L21 19L21 17L23 17L23 18L24 18L24 19L26 19L26 20L27 20L27 21L28 21L28 23L25 23L25 22L26 22L26 21L25 21L25 22L24 22L24 21L23 21L23 22L22 22L22 20L21 20L21 21L20 21L20 25L21 25L21 27L20 27L20 26L19 26L19 25L18 25L18 24L17 24L17 25L16 25L16 26L18 26L18 27L19 27L19 28L18 28L18 29L17 29L17 32L18 32L18 36L17 36L17 35L16 35L16 37L18 37L18 36L19 36L19 33L20 33L20 35L21 35L21 33L22 33L22 32L23 32L23 35L24 35L24 37L27 37L27 35L25 35L25 34L26 34L26 33L27 33L27 32L28 32L28 33L29 33L29 37L31 37L31 36L32 36L32 37L37 37L37 36L35 36L35 35L33 35L33 32L34 32L34 31L33 31L33 27L34 27L34 26L33 26L33 25L36 25L36 26L35 26L35 27L36 27L36 28L34 28L34 30L35 30L35 31L37 31L37 27L36 27L36 26L37 26L37 24L35 24L35 22L36 22L36 19L37 19L37 17L36 17L36 16L37 16L37 15L36 15L36 16L34 16L34 17L33 17L33 19L31 19L31 18L32 18L32 17L28 17L28 16L33 16L33 15L34 15L34 14L35 14L35 11L36 11L36 12L37 12L37 11L36 11L36 10L35 10L35 8L32 8L32 9L31 9L31 10L30 10L30 11L29 11L29 9L30 9L30 8L27 8L27 5L29 5L29 2L27 2L27 0L26 0L26 2L25 2L25 1L24 1L24 0L19 0L19 1L18 1L18 2L19 2L19 3L21 3L21 2L22 2L22 4L25 4L25 5L24 5L24 7L25 7L25 6L26 6L26 9L28 9L28 12L27 12L27 10L26 10L26 11L25 11L25 10L24 10L24 9L22 9L22 8L23 8L23 6L22 6L22 8L20 8L20 7L21 7L21 6L20 6L20 4L19 4L19 6L18 6L18 5L17 5L17 4L15 4L15 3L17 3L17 2L15 2L15 1L14 1L14 0ZM16 0L16 1L17 1L17 0ZM28 0L28 1L29 1L29 0ZM19 1L19 2L21 2L21 1ZM22 1L22 2L23 2L23 1ZM26 2L26 3L27 3L27 2ZM10 5L10 6L9 6L9 7L10 7L10 6L11 6L11 7L12 7L12 5ZM17 6L17 7L16 7L16 8L17 8L17 9L18 9L18 8L19 8L19 7L20 7L20 6L19 6L19 7L18 7L18 6ZM28 6L28 7L29 7L29 6ZM17 7L17 8L18 8L18 7ZM36 8L36 9L37 9L37 8ZM1 9L1 10L2 10L2 9ZM20 9L20 10L19 10L19 12L18 12L18 10L17 10L17 11L16 11L16 12L15 12L15 11L14 11L14 12L12 12L12 14L11 14L11 13L10 13L10 14L11 14L11 15L9 15L9 16L7 16L7 17L6 17L6 18L7 18L7 19L5 19L5 20L4 20L4 19L3 19L3 17L2 17L2 16L1 16L1 20L4 20L4 21L1 21L1 22L2 22L2 23L3 23L3 22L4 22L4 24L3 24L3 25L4 25L4 24L5 24L5 22L7 22L7 23L6 23L6 24L7 24L7 23L9 23L9 22L12 22L12 21L10 21L10 20L9 20L9 18L7 18L7 17L9 17L9 16L10 16L10 19L11 19L11 20L12 20L12 19L11 19L11 18L12 18L12 17L11 17L11 16L12 16L12 14L13 14L13 15L14 15L14 14L13 14L13 13L17 13L17 12L18 12L18 14L17 14L17 15L16 15L16 14L15 14L15 15L16 15L16 18L17 18L17 19L18 19L18 20L19 20L19 19L20 19L20 18L19 18L19 17L21 17L21 16L19 16L19 15L18 15L18 14L19 14L19 12L21 12L21 13L20 13L20 15L22 15L22 14L23 14L23 17L25 17L25 18L27 18L27 16L26 16L26 15L29 15L29 14L30 14L30 15L32 15L32 14L30 14L30 13L29 13L29 12L28 12L28 13L29 13L29 14L26 14L26 15L25 15L25 14L24 14L24 13L22 13L22 12L25 12L25 11L20 11L20 10L21 10L21 9ZM32 9L32 10L31 10L31 13L32 13L32 12L34 12L34 11L33 11L33 10L34 10L34 9ZM5 10L5 11L6 11L6 12L5 12L5 13L6 13L6 14L7 14L7 15L8 15L8 14L7 14L7 13L8 13L8 12L7 12L7 11L6 11L6 10ZM6 12L6 13L7 13L7 12ZM36 13L36 14L37 14L37 13ZM18 16L18 17L17 17L17 18L18 18L18 17L19 17L19 16ZM25 16L25 17L26 17L26 16ZM34 17L34 20L33 20L33 21L32 21L32 20L29 20L29 23L28 23L28 24L27 24L27 25L29 25L29 26L27 26L27 28L26 28L26 25L25 25L25 24L24 24L24 23L23 23L23 24L22 24L22 22L21 22L21 25L22 25L22 27L23 27L23 28L24 28L24 27L25 27L25 28L26 28L26 30L20 30L20 28L19 28L19 29L18 29L18 32L19 32L19 31L21 31L21 32L20 32L20 33L21 33L21 32L22 32L22 31L23 31L23 32L24 32L24 33L26 33L26 32L27 32L27 31L28 31L28 30L27 30L27 29L28 29L28 28L29 28L29 27L30 27L30 28L31 28L31 27L32 27L32 26L30 26L30 25L29 25L29 23L30 23L30 24L31 24L31 23L30 23L30 22L31 22L31 21L32 21L32 24L33 24L33 22L34 22L34 21L35 21L35 17ZM28 18L28 19L30 19L30 18ZM5 20L5 21L4 21L4 22L5 22L5 21L8 21L8 22L9 22L9 21L8 21L8 20ZM24 25L24 26L25 26L25 25ZM3 27L3 28L4 28L4 27ZM9 27L9 28L10 28L10 27ZM8 29L8 30L9 30L9 33L8 33L8 37L12 37L12 36L15 36L15 34L14 34L14 35L11 35L11 32L12 32L12 31L11 31L11 32L10 32L10 30L11 30L11 29ZM29 29L29 32L32 32L32 29ZM35 29L35 30L36 30L36 29ZM30 30L30 31L31 31L31 30ZM24 31L24 32L25 32L25 31ZM36 32L36 33L34 33L34 34L37 34L37 32ZM16 33L16 34L17 34L17 33ZM31 33L31 34L32 34L32 33ZM9 35L9 36L11 36L11 35ZM30 35L30 36L31 36L31 35ZM32 35L32 36L33 36L33 35ZM20 36L20 37L21 37L21 36ZM0 0L0 7L7 7L7 0ZM1 1L1 6L6 6L6 1ZM2 2L2 5L5 5L5 2ZM30 0L30 7L37 7L37 0ZM31 1L31 6L36 6L36 1ZM32 2L32 5L35 5L35 2ZM0 30L0 37L7 37L7 30ZM1 31L1 36L6 36L6 31ZM2 32L2 35L5 35L5 32Z" fill="#000000"/></g></g></svg>
