<?xml version="1.0" encoding="UTF-8"?>
<svg xmlns="http://www.w3.org/2000/svg" version="1.1" width="300" height="300" viewBox="0 0 300 300"><rect x="0" y="0" width="300" height="300" fill="#ffffff"/><g transform="scale(8.108)"><g transform="translate(0,0)"><path fill-rule="evenodd" d="M8 0L8 1L10 1L10 0ZM14 0L14 2L11 2L11 4L10 4L10 3L9 3L9 2L8 2L8 5L9 5L9 6L8 6L8 7L9 7L9 8L8 8L8 9L7 9L7 8L6 8L6 9L7 9L7 10L5 10L5 11L7 11L7 12L5 12L5 13L4 13L4 11L2 11L2 10L0 10L0 12L1 12L1 13L3 13L3 14L4 14L4 16L2 16L2 17L1 17L1 16L0 16L0 17L1 17L1 18L0 18L0 19L1 19L1 18L5 18L5 17L9 17L9 19L8 19L8 20L5 20L5 19L2 19L2 21L1 21L1 20L0 20L0 21L1 21L1 22L0 22L0 23L1 23L1 24L0 24L0 25L1 25L1 27L0 27L0 28L1 28L1 27L2 27L2 28L3 28L3 29L7 29L7 28L8 28L8 27L9 27L9 26L10 26L10 24L9 24L9 23L10 23L10 22L11 22L11 23L14 23L14 22L16 22L16 23L15 23L15 24L14 24L14 26L13 26L13 24L12 24L12 25L11 25L11 27L10 27L10 28L9 28L9 29L8 29L8 30L9 30L9 31L11 31L11 32L10 32L10 33L8 33L8 37L10 37L10 35L11 35L11 37L12 37L12 36L15 36L15 37L18 37L18 36L16 36L16 35L15 35L15 34L17 34L17 33L18 33L18 34L20 34L20 37L21 37L21 35L24 35L24 37L27 37L27 35L25 35L25 34L26 34L26 33L27 33L27 32L28 32L28 33L29 33L29 37L31 37L31 36L32 36L32 37L37 37L37 36L35 36L35 35L33 35L33 32L34 32L34 31L33 31L33 27L34 27L34 26L33 26L33 25L36 25L36 26L35 26L35 27L36 27L36 28L34 28L34 30L35 30L35 31L37 31L37 27L36 27L36 26L37 26L37 24L35 24L35 22L36 22L36 19L37 19L37 17L36 17L36 16L37 16L37 15L36 15L36 16L34 16L34 17L33 17L33 19L31 19L31 18L32 18L32 17L28 17L28 16L33 16L33 15L34 15L34 14L35 14L35 11L36 11L36 12L37 12L37 11L36 11L36 10L35 10L35 8L32 8L32 9L31 9L31 10L30 10L30 11L29 11L29 9L30 9L30 8L27 8L27 5L29 5L29 2L27 2L27 0L26 0L26 2L25 2L25 1L24 1L24 0L21 0L21 2L22 2L22 4L25 4L25 5L24 5L24 7L25 7L25 6L26 6L26 9L28 9L28 12L27 12L27 10L26 10L26 11L25 11L25 10L24 10L24 9L22 9L22 8L23 8L23 6L22 6L22 8L21 8L21 5L20 5L20 4L21 4L21 3L20 3L20 2L18 2L18 0L17 0L17 2L15 2L15 0ZM19 0L19 1L20 1L20 0ZM28 0L28 1L29 1L29 0ZM22 1L22 2L23 2L23 1ZM14 2L14 3L15 3L15 4L14 4L14 6L13 6L13 7L12 7L12 5L13 5L13 3L12 3L12 5L10 5L10 6L9 6L9 7L10 7L10 8L9 8L9 10L7 10L7 11L8 11L8 12L9 12L9 10L11 10L11 11L10 11L10 12L11 12L11 11L14 11L14 12L12 12L12 14L11 14L11 13L10 13L10 14L9 14L9 13L5 13L5 14L9 14L9 15L6 15L6 16L10 16L10 14L11 14L11 16L12 16L12 17L11 17L11 18L12 18L12 17L14 17L14 18L13 18L13 20L14 20L14 21L17 21L17 19L15 19L15 17L16 17L16 18L17 18L17 17L16 17L16 16L18 16L18 14L17 14L17 13L16 13L16 14L15 14L15 15L14 15L14 14L13 14L13 13L15 13L15 11L16 11L16 12L18 12L18 13L20 13L20 15L22 15L22 14L23 14L23 17L21 17L21 18L20 18L20 16L19 16L19 17L18 17L18 18L19 18L19 19L18 19L18 23L17 23L17 28L16 28L16 30L17 30L17 31L19 31L19 33L22 33L22 34L23 34L23 32L24 32L24 33L26 33L26 32L27 32L27 31L28 31L28 30L27 30L27 29L28 29L28 28L29 28L29 27L30 27L30 28L31 28L31 27L32 27L32 26L30 26L30 25L29 25L29 23L30 23L30 24L31 24L31 23L30 23L30 22L31 22L31 21L32 21L32 24L33 24L33 22L34 22L34 21L35 21L35 17L34 17L34 20L33 20L33 21L32 21L32 20L29 20L29 23L28 23L28 21L27 21L27 20L26 20L26 19L24 19L24 18L23 18L23 17L25 17L25 18L27 18L27 16L26 16L26 15L29 15L29 14L30 14L30 15L32 15L32 14L30 14L30 13L29 13L29 12L28 12L28 13L29 13L29 14L26 14L26 15L25 15L25 14L24 14L24 13L22 13L22 12L25 12L25 11L21 11L21 10L20 10L20 6L19 6L19 7L18 7L18 5L19 5L19 4L20 4L20 3L18 3L18 2L17 2L17 7L18 7L18 8L17 8L17 9L18 9L18 8L19 8L19 10L17 10L17 11L16 11L16 9L14 9L14 6L15 6L15 8L16 8L16 3L15 3L15 2ZM26 2L26 3L27 3L27 2ZM10 6L10 7L11 7L11 8L12 8L12 7L11 7L11 6ZM28 6L28 7L29 7L29 6ZM0 8L0 9L3 9L3 10L4 10L4 8ZM36 8L36 9L37 9L37 8ZM13 9L13 10L14 10L14 11L15 11L15 10L14 10L14 9ZM32 9L32 10L31 10L31 13L32 13L32 12L34 12L34 11L33 11L33 10L34 10L34 9ZM18 11L18 12L21 12L21 11ZM36 13L36 14L37 14L37 13ZM0 14L0 15L1 15L1 14ZM12 14L12 16L14 16L14 15L13 15L13 14ZM4 16L4 17L5 17L5 16ZM25 16L25 17L26 17L26 16ZM6 18L6 19L7 19L7 18ZM28 18L28 19L30 19L30 18ZM9 19L9 20L8 20L8 22L7 22L7 21L5 21L5 22L7 22L7 23L4 23L4 24L3 24L3 21L2 21L2 22L1 22L1 23L2 23L2 25L3 25L3 26L2 26L2 27L3 27L3 28L5 28L5 27L6 27L6 28L7 28L7 27L8 27L8 26L7 26L7 25L8 25L8 22L9 22L9 20L10 20L10 21L11 21L11 22L12 22L12 21L11 21L11 20L12 20L12 19L11 19L11 20L10 20L10 19ZM19 20L19 22L22 22L22 24L23 24L23 23L24 23L24 24L25 24L25 25L24 25L24 26L25 26L25 25L26 25L26 28L25 28L25 27L24 27L24 28L23 28L23 27L22 27L22 25L21 25L21 23L18 23L18 24L20 24L20 25L21 25L21 28L20 28L20 26L19 26L19 28L17 28L17 29L18 29L18 30L19 30L19 29L20 29L20 31L22 31L22 32L23 32L23 30L26 30L26 28L27 28L27 26L29 26L29 25L27 25L27 24L28 24L28 23L25 23L25 22L26 22L26 21L25 21L25 22L24 22L24 21L23 21L23 22L22 22L22 20ZM4 24L4 26L3 26L3 27L4 27L4 26L6 26L6 27L7 27L7 26L6 26L6 25L7 25L7 24ZM15 25L15 26L14 26L14 27L13 27L13 26L12 26L12 28L10 28L10 29L9 29L9 30L10 30L10 29L11 29L11 31L12 31L12 32L11 32L11 33L10 33L10 34L9 34L9 35L10 35L10 34L11 34L11 35L14 35L14 34L15 34L15 33L13 33L13 30L14 30L14 27L16 27L16 25ZM12 28L12 29L13 29L13 28ZM21 28L21 29L22 29L22 28ZM29 29L29 32L32 32L32 29ZM35 29L35 30L36 30L36 29ZM30 30L30 31L31 31L31 30ZM15 31L15 32L16 32L16 31ZM24 31L24 32L25 32L25 31ZM36 32L36 33L34 33L34 34L37 34L37 32ZM31 33L31 34L32 34L32 33ZM30 35L30 36L31 36L31 35ZM32 35L32 36L33 36L33 35ZM22 36L22 37L23 37L23 36ZM0 0L0 7L7 7L7 0ZM1 1L1 6L6 6L6 1ZM2 2L2 5L5 5L5 2ZM30 0L30 7L37 7L37 0ZM31 1L31 6L36 6L36 1ZM32 2L32 5L35 5L35 2ZM0 30L0 37L7 37L7 30ZM1 31L1 36L6 36L6 31ZM2 32L2 35L5 35L5 32Z" fill="#000000"/></g></g></svg>
