<?xml version="1.0" encoding="UTF-8"?>
<svg xmlns="http://www.w3.org/2000/svg" version="1.1" width="300" height="300" viewBox="0 0 300 300"><rect x="0" y="0" width="300" height="300" fill="#ffffff"/><g transform="scale(8.108)"><g transform="translate(0,0)"><path fill-rule="evenodd" d="M9 0L9 1L8 1L8 2L9 2L9 3L8 3L8 4L10 4L10 7L11 7L11 4L12 4L12 5L13 5L13 6L12 6L12 9L13 9L13 10L11 10L11 11L10 11L10 10L9 10L9 9L11 9L11 8L6 8L6 9L8 9L8 10L5 10L5 13L4 13L4 10L3 10L3 9L5 9L5 8L0 8L0 9L1 9L1 12L2 12L2 13L4 13L4 15L3 15L3 16L2 16L2 14L0 14L0 15L1 15L1 16L0 16L0 20L1 20L1 23L0 23L0 29L1 29L1 26L2 26L2 25L3 25L3 26L5 26L5 27L7 27L7 28L6 28L6 29L7 29L7 28L8 28L8 27L7 27L7 26L9 26L9 29L8 29L8 31L9 31L9 32L8 32L8 37L10 37L10 36L11 36L11 37L12 37L12 35L13 35L13 34L11 34L11 33L9 33L9 32L10 32L10 31L11 31L11 29L12 29L12 30L13 30L13 31L12 31L12 33L13 33L13 32L14 32L14 33L15 33L15 35L14 35L14 36L17 36L17 37L18 37L18 36L19 36L19 37L20 37L20 36L21 36L21 37L23 37L23 34L26 34L26 36L24 36L24 37L27 37L27 36L29 36L29 37L31 37L31 35L32 35L32 34L33 34L33 35L34 35L34 34L35 34L35 35L36 35L36 36L32 36L32 37L37 37L37 33L35 33L35 32L37 32L37 30L35 30L35 32L33 32L33 30L34 30L34 29L35 29L35 28L33 28L33 26L34 26L34 27L36 27L36 28L37 28L37 26L36 26L36 25L37 25L37 22L36 22L36 21L37 21L37 18L36 18L36 17L37 17L37 14L36 14L36 13L35 13L35 12L34 12L34 11L35 11L35 9L36 9L36 8L35 8L35 9L34 9L34 8L33 8L33 9L34 9L34 11L33 11L33 10L32 10L32 8L31 8L31 10L32 10L32 11L31 11L31 12L30 12L30 10L29 10L29 9L30 9L30 8L29 8L29 9L28 9L28 10L27 10L27 11L26 11L26 12L25 12L25 11L24 11L24 12L23 12L23 10L24 10L24 9L27 9L27 8L28 8L28 7L29 7L29 3L24 3L24 2L23 2L23 3L22 3L22 2L18 2L18 3L17 3L17 2L16 2L16 1L15 1L15 0L13 0L13 1L11 1L11 2L10 2L10 0ZM19 0L19 1L24 1L24 0ZM26 0L26 1L27 1L27 2L28 2L28 1L29 1L29 0L28 0L28 1L27 1L27 0ZM13 1L13 2L12 2L12 4L13 4L13 3L14 3L14 2L15 2L15 1ZM10 3L10 4L11 4L11 3ZM18 3L18 4L20 4L20 5L19 5L19 8L20 8L20 9L22 9L22 8L20 8L20 6L21 6L21 7L22 7L22 6L21 6L21 4L22 4L22 5L23 5L23 7L24 7L24 6L25 6L25 8L27 8L27 7L28 7L28 6L27 6L27 7L26 7L26 5L28 5L28 4L26 4L26 5L23 5L23 4L22 4L22 3L21 3L21 4L20 4L20 3ZM15 4L15 5L14 5L14 6L13 6L13 8L16 8L16 6L17 6L17 8L18 8L18 6L17 6L17 5L16 5L16 4ZM8 5L8 7L9 7L9 5ZM15 5L15 6L14 6L14 7L15 7L15 6L16 6L16 5ZM23 8L23 9L24 9L24 8ZM14 9L14 11L12 11L12 13L11 13L11 12L10 12L10 11L9 11L9 12L8 12L8 11L6 11L6 12L8 12L8 16L7 16L7 15L6 15L6 14L7 14L7 13L5 13L5 15L4 15L4 17L3 17L3 18L2 18L2 17L1 17L1 18L2 18L2 19L1 19L1 20L2 20L2 21L3 21L3 19L4 19L4 18L5 18L5 15L6 15L6 16L7 16L7 17L6 17L6 18L7 18L7 19L5 19L5 20L9 20L9 21L10 21L10 19L9 19L9 18L7 18L7 17L8 17L8 16L10 16L10 18L13 18L13 19L12 19L12 21L11 21L11 26L10 26L10 28L11 28L11 26L13 26L13 27L12 27L12 29L15 29L15 30L16 30L16 31L14 31L14 32L15 32L15 33L17 33L17 36L18 36L18 35L19 35L19 36L20 36L20 35L22 35L22 34L19 34L19 33L20 33L20 32L21 32L21 33L23 33L23 31L24 31L24 32L26 32L26 31L27 31L27 32L28 32L28 29L25 29L25 28L26 28L26 27L25 27L25 28L24 28L24 26L28 26L28 25L29 25L29 24L28 24L28 23L27 23L27 25L25 25L25 24L26 24L26 22L28 22L28 21L29 21L29 22L30 22L30 23L31 23L31 24L36 24L36 23L34 23L34 21L32 21L32 22L33 22L33 23L31 23L31 21L30 21L30 20L31 20L31 19L32 19L32 20L36 20L36 19L35 19L35 18L34 18L34 17L32 17L32 16L31 16L31 17L30 17L30 18L29 18L29 16L27 16L27 17L26 17L26 18L28 18L28 19L25 19L25 20L26 20L26 22L25 22L25 21L24 21L24 20L23 20L23 19L24 19L24 18L25 18L25 17L24 17L24 18L21 18L21 17L22 17L22 16L21 16L21 15L20 15L20 14L19 14L19 15L18 15L18 14L16 14L16 15L17 15L17 16L18 16L18 17L17 17L17 20L18 20L18 21L19 21L19 23L20 23L20 24L18 24L18 22L17 22L17 24L16 24L16 23L14 23L14 24L13 24L13 25L12 25L12 23L13 23L13 22L12 22L12 21L15 21L15 22L16 22L16 21L15 21L15 20L16 20L16 19L15 19L15 18L16 18L16 17L14 17L14 16L15 16L15 15L14 15L14 16L13 16L13 17L12 17L12 15L13 15L13 14L12 14L12 13L14 13L14 14L15 14L15 13L16 13L16 12L17 12L17 13L19 13L19 12L21 12L21 13L22 13L22 15L23 15L23 16L26 16L26 15L27 15L27 14L28 14L28 13L29 13L29 11L28 11L28 13L26 13L26 14L25 14L25 13L24 13L24 14L23 14L23 13L22 13L22 12L21 12L21 11L22 11L22 10L19 10L19 9L18 9L18 10L17 10L17 9ZM15 10L15 12L16 12L16 10ZM18 10L18 12L19 12L19 10ZM36 10L36 11L37 11L37 10ZM2 11L2 12L3 12L3 11ZM32 11L32 12L31 12L31 13L30 13L30 14L31 14L31 13L32 13L32 14L33 14L33 16L35 16L35 17L36 17L36 14L35 14L35 15L34 15L34 13L32 13L32 12L33 12L33 11ZM9 12L9 15L10 15L10 16L11 16L11 13L10 13L10 12ZM24 14L24 15L25 15L25 14ZM19 15L19 16L20 16L20 17L19 17L19 18L20 18L20 17L21 17L21 16L20 16L20 15ZM30 18L30 19L31 19L31 18ZM33 18L33 19L34 19L34 18ZM14 19L14 20L15 20L15 19ZM18 19L18 20L19 20L19 19ZM21 19L21 20L20 20L20 23L21 23L21 24L22 24L22 23L23 23L23 22L24 22L24 21L23 21L23 20L22 20L22 19ZM28 19L28 20L29 20L29 19ZM21 20L21 21L22 21L22 22L23 22L23 21L22 21L22 20ZM4 21L4 22L2 22L2 24L3 24L3 25L4 25L4 23L6 23L6 24L5 24L5 26L7 26L7 25L8 25L8 24L9 24L9 23L10 23L10 22L9 22L9 23L8 23L8 21ZM6 22L6 23L7 23L7 22ZM6 24L6 25L7 25L7 24ZM14 24L14 25L15 25L15 27L14 27L14 28L15 28L15 29L16 29L16 30L17 30L17 31L16 31L16 32L17 32L17 31L19 31L19 32L20 32L20 31L19 31L19 30L20 30L20 29L21 29L21 28L22 28L22 30L24 30L24 29L23 29L23 26L24 26L24 25L23 25L23 26L22 26L22 27L19 27L19 28L20 28L20 29L18 29L18 28L17 28L17 26L19 26L19 25L16 25L16 24ZM20 25L20 26L21 26L21 25ZM30 25L30 26L29 26L29 27L27 27L27 28L29 28L29 27L30 27L30 28L31 28L31 27L30 27L30 26L31 26L31 25ZM32 25L32 26L33 26L33 25ZM34 25L34 26L35 26L35 25ZM2 27L2 29L4 29L4 28L3 28L3 27ZM15 27L15 28L16 28L16 29L17 29L17 30L18 30L18 29L17 29L17 28L16 28L16 27ZM9 29L9 30L10 30L10 29ZM29 29L29 32L32 32L32 29ZM30 30L30 31L31 31L31 30ZM21 31L21 32L22 32L22 31ZM26 33L26 34L28 34L28 35L31 35L31 34L32 34L32 33L31 33L31 34L29 34L29 33ZM33 33L33 34L34 34L34 33ZM9 34L9 36L10 36L10 34ZM0 0L0 7L7 7L7 0ZM1 1L1 6L6 6L6 1ZM2 2L2 5L5 5L5 2ZM30 0L30 7L37 7L37 0ZM31 1L31 6L36 6L36 1ZM32 2L32 5L35 5L35 2ZM0 30L0 37L7 37L7 30ZM1 31L1 36L6 36L6 31ZM2 32L2 35L5 35L5 32Z" fill="#000000"/></g></g></svg>
