<?xml version="1.0" encoding="UTF-8"?>
<svg xmlns="http://www.w3.org/2000/svg" version="1.1" width="300" height="300" viewBox="0 0 300 300"><rect x="0" y="0" width="300" height="300" fill="#ffffff"/><g transform="scale(8.108)"><g transform="translate(0,0)"><path fill-rule="evenodd" d="M9 0L9 1L8 1L8 2L9 2L9 3L8 3L8 4L10 4L10 7L11 7L11 4L12 4L12 5L13 5L13 6L12 6L12 9L14 9L14 10L11 10L11 11L10 11L10 10L9 10L9 11L10 11L10 12L11 12L11 13L10 13L10 14L9 14L9 13L8 13L8 11L7 11L7 10L5 10L5 12L6 12L6 13L7 13L7 14L5 14L5 13L4 13L4 12L3 12L3 13L4 13L4 16L1 16L1 17L3 17L3 18L5 18L5 20L4 20L4 19L2 19L2 18L0 18L0 19L2 19L2 20L1 20L1 21L0 21L0 23L1 23L1 24L0 24L0 29L1 29L1 24L2 24L2 23L1 23L1 22L2 22L2 20L4 20L4 21L3 21L3 22L4 22L4 23L3 23L3 25L2 25L2 26L3 26L3 27L4 27L4 28L2 28L2 29L4 29L4 28L6 28L6 29L7 29L7 28L8 28L8 31L11 31L11 29L12 29L12 30L13 30L13 31L12 31L12 33L13 33L13 32L14 32L14 33L16 33L16 34L15 34L15 35L14 35L14 36L15 36L15 37L16 37L16 36L17 36L17 35L19 35L19 34L20 34L20 33L21 33L21 35L20 35L20 36L19 36L19 37L20 37L20 36L21 36L21 37L23 37L23 36L22 36L22 35L23 35L23 34L26 34L26 36L24 36L24 37L27 37L27 36L29 36L29 37L31 37L31 35L32 35L32 34L33 34L33 35L34 35L34 34L35 34L35 35L36 35L36 36L32 36L32 37L37 37L37 33L35 33L35 32L37 32L37 30L35 30L35 32L33 32L33 30L34 30L34 29L35 29L35 28L33 28L33 26L34 26L34 27L36 27L36 28L37 28L37 26L36 26L36 25L37 25L37 22L36 22L36 21L37 21L37 18L36 18L36 17L37 17L37 14L36 14L36 13L35 13L35 12L34 12L34 11L35 11L35 9L36 9L36 8L35 8L35 9L34 9L34 8L33 8L33 9L34 9L34 11L33 11L33 10L32 10L32 8L31 8L31 10L32 10L32 11L31 11L31 12L30 12L30 10L29 10L29 9L30 9L30 8L29 8L29 9L28 9L28 10L27 10L27 11L26 11L26 12L25 12L25 11L24 11L24 12L23 12L23 10L24 10L24 9L27 9L27 8L28 8L28 7L29 7L29 3L24 3L24 2L23 2L23 3L22 3L22 2L21 2L21 1L24 1L24 0L20 0L20 2L21 2L21 3L19 3L19 5L21 5L21 6L20 6L20 7L21 7L21 8L22 8L22 9L20 9L20 8L19 8L19 6L18 6L18 5L15 5L15 4L18 4L18 3L16 3L16 1L17 1L17 0L16 0L16 1L14 1L14 0L13 0L13 1L11 1L11 2L10 2L10 0ZM18 0L18 2L19 2L19 0ZM26 0L26 1L27 1L27 2L28 2L28 1L29 1L29 0L28 0L28 1L27 1L27 0ZM13 1L13 2L12 2L12 4L13 4L13 5L14 5L14 6L13 6L13 8L16 8L16 6L15 6L15 5L14 5L14 4L15 4L15 2L14 2L14 1ZM10 3L10 4L11 4L11 3ZM13 3L13 4L14 4L14 3ZM21 3L21 4L22 4L22 5L23 5L23 7L24 7L24 6L25 6L25 8L27 8L27 7L28 7L28 6L27 6L27 7L26 7L26 5L28 5L28 4L26 4L26 5L23 5L23 4L22 4L22 3ZM8 5L8 7L9 7L9 5ZM14 6L14 7L15 7L15 6ZM17 6L17 14L16 14L16 13L15 13L15 11L12 11L12 13L11 13L11 15L10 15L10 16L11 16L11 18L13 18L13 19L12 19L12 21L10 21L10 20L9 20L9 19L10 19L10 17L9 17L9 19L8 19L8 16L9 16L9 14L8 14L8 16L7 16L7 15L6 15L6 16L4 16L4 17L6 17L6 18L7 18L7 19L6 19L6 20L5 20L5 21L4 21L4 22L5 22L5 23L4 23L4 25L3 25L3 26L4 26L4 25L5 25L5 23L6 23L6 24L8 24L8 23L9 23L9 24L10 24L10 25L9 25L9 26L10 26L10 25L11 25L11 26L13 26L13 27L12 27L12 29L15 29L15 30L16 30L16 29L15 29L15 28L16 28L16 27L15 27L15 26L16 26L16 25L14 25L14 24L15 24L15 23L14 23L14 24L13 24L13 25L12 25L12 23L13 23L13 22L12 22L12 21L15 21L15 20L16 20L16 21L17 21L17 24L18 24L18 26L19 26L19 28L18 28L18 27L17 27L17 30L18 30L18 31L17 31L17 32L16 32L16 31L14 31L14 32L16 32L16 33L17 33L17 34L16 34L16 35L15 35L15 36L16 36L16 35L17 35L17 34L18 34L18 33L20 33L20 32L18 32L18 31L22 31L22 32L21 32L21 33L22 33L22 34L23 34L23 33L22 33L22 32L23 32L23 31L24 31L24 32L26 32L26 31L27 31L27 32L28 32L28 29L25 29L25 28L26 28L26 27L25 27L25 28L24 28L24 26L28 26L28 25L29 25L29 24L28 24L28 23L27 23L27 25L25 25L25 24L26 24L26 22L28 22L28 21L29 21L29 22L30 22L30 23L31 23L31 24L36 24L36 23L34 23L34 21L32 21L32 22L33 22L33 23L31 23L31 21L30 21L30 20L31 20L31 19L32 19L32 20L36 20L36 19L35 19L35 18L34 18L34 17L32 17L32 16L31 16L31 17L30 17L30 18L29 18L29 16L27 16L27 17L26 17L26 18L28 18L28 19L25 19L25 20L26 20L26 22L25 22L25 21L24 21L24 20L23 20L23 19L24 19L24 18L25 18L25 17L24 17L24 18L20 18L20 17L22 17L22 16L20 16L20 14L19 14L19 13L22 13L22 15L23 15L23 16L26 16L26 15L27 15L27 14L28 14L28 13L29 13L29 11L28 11L28 13L26 13L26 14L25 14L25 13L24 13L24 14L23 14L23 13L22 13L22 12L19 12L19 11L20 11L20 9L19 9L19 8L18 8L18 6ZM21 6L21 7L22 7L22 6ZM0 8L0 11L1 11L1 13L0 13L0 14L1 14L1 15L2 15L2 14L1 14L1 13L2 13L2 11L3 11L3 10L2 10L2 11L1 11L1 9L5 9L5 8ZM6 8L6 9L11 9L11 8ZM23 8L23 9L24 9L24 8ZM18 9L18 11L19 11L19 9ZM21 10L21 11L22 11L22 10ZM36 10L36 11L37 11L37 10ZM6 11L6 12L7 12L7 11ZM32 11L32 12L31 12L31 13L30 13L30 14L31 14L31 13L32 13L32 14L33 14L33 16L35 16L35 17L36 17L36 14L35 14L35 15L34 15L34 13L32 13L32 12L33 12L33 11ZM12 13L12 14L13 14L13 15L12 15L12 17L13 17L13 16L14 16L14 17L18 17L18 18L19 18L19 17L18 17L18 16L14 16L14 15L16 15L16 14L14 14L14 13ZM17 14L17 15L18 15L18 14ZM24 14L24 15L25 15L25 14ZM6 16L6 17L7 17L7 16ZM15 18L15 19L14 19L14 20L15 20L15 19L16 19L16 18ZM30 18L30 19L31 19L31 18ZM33 18L33 19L34 19L34 18ZM19 19L19 20L22 20L22 21L19 21L19 22L21 22L21 23L19 23L19 24L20 24L20 26L21 26L21 24L22 24L22 23L23 23L23 22L24 22L24 21L23 21L23 20L22 20L22 19ZM28 19L28 20L29 20L29 19ZM6 20L6 21L5 21L5 22L6 22L6 23L7 23L7 22L10 22L10 24L11 24L11 22L10 22L10 21L9 21L9 20L8 20L8 21L7 21L7 20ZM17 20L17 21L18 21L18 20ZM6 21L6 22L7 22L7 21ZM22 21L22 22L23 22L23 21ZM6 25L6 26L7 26L7 27L6 27L6 28L7 28L7 27L8 27L8 28L10 28L10 29L11 29L11 28L10 28L10 27L8 27L8 25ZM23 25L23 26L22 26L22 27L20 27L20 29L18 29L18 30L21 30L21 29L22 29L22 30L24 30L24 29L23 29L23 26L24 26L24 25ZM30 25L30 26L29 26L29 27L27 27L27 28L29 28L29 27L30 27L30 28L31 28L31 27L30 27L30 26L31 26L31 25ZM32 25L32 26L33 26L33 25ZM34 25L34 26L35 26L35 25ZM14 27L14 28L15 28L15 27ZM29 29L29 32L32 32L32 29ZM30 30L30 31L31 31L31 30ZM8 32L8 37L10 37L10 36L11 36L11 37L12 37L12 35L13 35L13 34L11 34L11 35L10 35L10 36L9 36L9 34L10 34L10 33L9 33L9 32ZM26 33L26 34L28 34L28 35L31 35L31 34L32 34L32 33L31 33L31 34L29 34L29 33ZM33 33L33 34L34 34L34 33ZM0 0L0 7L7 7L7 0ZM1 1L1 6L6 6L6 1ZM2 2L2 5L5 5L5 2ZM30 0L30 7L37 7L37 0ZM31 1L31 6L36 6L36 1ZM32 2L32 5L35 5L35 2ZM0 30L0 37L7 37L7 30ZM1 31L1 36L6 36L6 31ZM2 32L2 35L5 35L5 32Z" fill="#000000"/></g></g></svg>
